<?xml version="1.0" standalone="no"?>
<!DOCTYPE svg PUBLIC "-//W3C//DTD SVG 20010904//EN"
 "http://www.w3.org/TR/2001/REC-SVG-20010904/DTD/svg10.dtd">
<svg version="1.0" xmlns="http://www.w3.org/2000/svg"
 width="256.000000pt" height="256.000000pt" viewBox="0 0 256.000000 256.000000"
 preserveAspectRatio="xMidYMid meet">
<metadata>
Created by potrace 1.14, written by Peter Selinger 2001-2017
</metadata>
<g transform="translate(0.000000,256.000000) scale(0.100000,-0.100000)"
fill="#000000" stroke="none">
<path d="M767 2388 c-7 -4 -24 -8 -38 -8 -14 0 -34 -6 -44 -14 -10 -7 -26 -11
-36 -9 -10 3 -35 -4 -56 -15 -21 -11 -51 -23 -68 -28 -26 -8 -30 -15 -33 -49
-7 -87 1 -169 17 -189 7 -8 14 -27 17 -43 3 -15 11 -35 18 -43 7 -8 18 -28 25
-45 7 -16 21 -35 32 -43 11 -8 24 -25 30 -39 5 -13 22 -29 39 -34 16 -6 30
-17 30 -25 0 -7 14 -21 30 -29 l31 -16 -50 -39 c-90 -71 -127 -140 -138 -255
-5 -56 -9 -64 -55 -110 -113 -112 -143 -260 -82 -395 14 -30 32 -62 40 -71 8
-9 21 -38 28 -65 40 -139 64 -212 80 -243 25 -48 113 -133 160 -155 22 -10 61
-34 86 -52 26 -19 73 -46 106 -61 32 -14 84 -46 115 -71 135 -104 323 -105
454 -3 28 22 92 60 143 86 50 26 92 50 92 55 0 4 25 20 56 36 113 57 181 138
215 258 48 165 59 200 73 215 27 30 64 125 70 176 2 28 0 70 -6 95 -5 25 -11
50 -12 55 -7 32 -51 97 -94 140 -47 47 -51 54 -56 110 -10 122 -59 204 -165
277 l-24 17 26 12 c15 7 34 23 42 36 9 12 22 23 30 23 8 0 26 18 40 40 14 22
29 40 34 40 5 0 14 15 22 33 7 17 21 43 31 56 10 13 15 28 12 33 -3 5 1 20 10
33 9 13 16 37 16 53 0 15 5 33 11 39 7 7 9 22 4 40 -4 15 -7 45 -6 65 3 38
-13 54 -57 61 -11 2 -27 9 -35 15 -8 7 -31 14 -49 16 -19 2 -45 9 -57 15 -12
7 -27 10 -34 8 -7 -2 -23 1 -37 7 -14 6 -56 10 -95 9 -38 -1 -84 -3 -102 -3
-18 0 -35 -5 -38 -10 -3 -6 -21 -10 -39 -10 -18 0 -45 -9 -59 -20 -14 -11 -32
-20 -41 -20 -25 0 -102 -84 -122 -135 -11 -25 -21 -45 -24 -45 -3 0 -14 21
-24 47 -22 52 -96 133 -122 133 -10 0 -25 7 -35 16 -18 16 -75 32 -149 41 -63
8 -172 8 -183 1z"/>
</g>
</svg>
